<?xml version="1.0" encoding="utf-8"?>
<!-- Svg Vector Icons : http://www.onlinewebfonts.com/icon -->
<!DOCTYPE svg PUBLIC "-//W3C//DTD SVG 1.1//EN" "http://www.w3.org/Graphics/SVG/1.1/DTD/svg11.dtd">
<svg version="1.1" xmlns="http://www.w3.org/2000/svg" xmlns:xlink="http://www.w3.org/1999/xlink" x="0px" y="0px" viewBox="0 0 1000 1000" enable-background="new 0 0 1000 1000" xml:space="preserve">
<metadata> Svg Vector Icons : http://www.onlinewebfonts.com/icon </metadata>
<g><path d="M500,10c-203,0-367.5,164.5-367.5,367.5C132.5,580.5,500,990,500,990s367.5-409.5,367.5-612.5C867.5,174.5,703,10,500,10z M179.6,382.2c0-179.5,143.4-325.1,320.4-325.1c176.9,0,320.4,145.5,320.4,325.1C820.4,561.8,500,924,500,924S179.6,561.8,179.6,382.2z"/><path d="M500,193.8c-84.6,0-153.1,68.5-153.1,153.1c0,84.6,68.6,153.1,153.1,153.1c84.6,0,153.1-68.6,153.1-153.1C653.1,262.3,584.6,193.8,500,193.8z M500,462.3c-62.4,0-113.1-50.6-113.1-113.1c0-62.4,50.6-113.1,113.1-113.1c62.5,0,113.1,50.6,113.1,113.1C613.1,411.7,562.5,462.3,500,462.3z"/></g>
</svg>